<svg width="35" height="37" viewBox="0 0 35 37" fill="none" xmlns="http://www.w3.org/2000/svg">
<path d="M31.147 13.648L31.126 13.626C31.124 13.625 31.122 13.623 31.121 13.621L17.501 0L3.88002 13.621C3.87802 13.622 3.87602 13.626 3.87602 13.626L3.85301 13.647C1.77101 15.742 0.448017 18.472 0.0950173 21.405C-0.257983 24.338 0.380022 27.304 1.90602 29.833C3.43302 32.362 5.76101 34.308 8.52101 35.361C11.28 36.415 14.313 36.516 17.136 35.648C17.374 35.575 17.627 35.575 17.865 35.648C20.688 36.515 23.72 36.414 26.48 35.361C29.239 34.307 31.567 32.361 33.094 29.833C34.62 27.304 35.258 24.338 34.905 21.405C34.553 18.473 33.23 15.742 31.147 13.648ZM8.72302 22.63C8.65702 22.696 8.60401 22.775 8.56801 22.862C8.53301 22.948 8.51402 23.041 8.51402 23.135C8.53802 25.539 9.21802 27.89 10.479 29.937C10.508 29.984 10.521 30.038 10.517 30.092C10.513 30.147 10.492 30.198 10.457 30.24C10.421 30.282 10.374 30.311 10.321 30.324C10.268 30.337 10.212 30.333 10.162 30.312C9.21302 29.914 8.35202 29.334 7.62502 28.605C6.13602 27.116 5.29902 25.097 5.29802 22.991C5.29702 20.886 6.13101 18.865 7.61801 17.374L17.501 7.4927L27.383 17.374C28.87 18.865 29.704 20.885 29.703 22.991C29.702 25.097 28.865 27.116 27.376 28.605C26.649 29.334 25.788 29.914 24.84 30.312C24.789 30.333 24.733 30.337 24.68 30.324C24.627 30.311 24.58 30.281 24.544 30.24C24.509 30.198 24.488 30.147 24.484 30.092C24.48 30.038 24.493 29.983 24.522 29.937C25.783 27.89 26.463 25.539 26.488 23.135C26.488 23.041 26.469 22.948 26.433 22.861C26.397 22.775 26.344 22.696 26.278 22.63L21.604 17.672C21.557 17.633 21.498 17.612 21.438 17.612C21.377 17.612 21.319 17.633 21.272 17.672C21.226 17.71 21.194 17.764 21.183 17.824C21.172 17.884 21.183 17.945 21.213 17.998C23.028 21.283 21.467 26.002 18.864 28.605L18.85 28.619C18.491 28.975 18.006 29.174 17.5 29.174C16.995 29.173 16.51 28.974 16.151 28.618L16.138 28.605C13.534 26.002 11.974 21.283 13.789 17.998C13.819 17.946 13.83 17.884 13.819 17.825C13.808 17.765 13.776 17.711 13.73 17.672C13.683 17.634 13.625 17.612 13.564 17.612C13.504 17.612 13.445 17.634 13.398 17.672L8.72302 22.63Z" fill="#00B2FF"/>
</svg>
