<svg width="21" height="21" viewBox="0 0 21 21" fill="none" xmlns="http://www.w3.org/2000/svg">
<path d="M10.121 0.550049C4.60697 0.550049 0.120972 5.04005 0.120972 10.55C0.120972 16.06 4.60697 20.55 10.121 20.55C15.635 20.55 20.121 16.06 20.121 10.55C20.121 5.04005 15.635 0.550049 10.121 0.550049ZM8.12201 14.96L5.117 11.96C4.726 11.57 4.72499 10.94 5.11499 10.55C5.50499 10.16 6.13799 10.16 6.52899 10.55L8.12 12.14L12.707 7.55005C13.098 7.16005 13.731 7.16005 14.121 7.55005C14.512 7.94005 14.512 8.56996 14.121 8.95996L8.12201 14.96Z" fill="#2FAB73"/>
</svg>
