<svg width="10" height="7" viewBox="0 0 10 7" fill="none" xmlns="http://www.w3.org/2000/svg">
<path d="M3.94343 7C3.84437 7 3.74682 6.97679 3.65602 6.9382C3.56522 6.89961 3.48267 6.84562 3.41288 6.77616L0.229647 3.49614C0.157608 3.42668 0.100572 3.34173 0.0608002 3.24912C0.0217788 3.15651 0.000772072 3.05626 2.16602e-05 2.94821C-0.000728751 2.84788 0.0180239 2.74745 0.0555445 2.65484C0.0930651 2.55451 0.149348 2.46974 0.219136 2.40029C0.289675 2.32311 0.373717 2.26911 0.466017 2.23052C0.558318 2.19193 0.656628 2.16872 0.756433 2.16872C0.856238 2.17643 0.954543 2.19194 1.04609 2.23824C1.13764 2.27683 1.22019 2.33083 1.28997 2.40801L3.94268 5.13238L8.71904 0.223843C8.85937 0.0772071 9.05072 0 9.24958 0C9.44844 0 9.6398 0.0772071 9.78012 0.223843C9.9212 0.370479 9.99999 0.563392 9.99999 0.771769C10.0007 0.972429 9.92121 1.17306 9.78088 1.3197L4.47398 6.77616C4.40419 6.84562 4.32164 6.89961 4.23009 6.9382C4.13929 6.97679 4.04173 7 3.94343 7Z" fill="#2FAB73"/>
</svg>
