<svg width="14" height="10" viewBox="0 0 14 10" fill="none" xmlns="http://www.w3.org/2000/svg">
<path d="M5.39602 9.28003C5.26502 9.28003 5.13503 9.24995 5.01303 9.19995C4.89203 9.14995 4.78205 9.07999 4.68905 8.98999L0.44705 4.73999C0.35205 4.64999 0.275051 4.53992 0.223051 4.41992C0.170051 4.29992 0.14302 4.17003 0.14102 4.03003C0.14002 3.90003 0.165032 3.7699 0.216032 3.6499C0.266032 3.5199 0.34005 3.41007 0.43405 3.32007C0.52805 3.22007 0.639053 3.1501 0.762053 3.1001C0.885053 3.0501 1.01702 3.02002 1.14902 3.02002C1.28202 3.03002 1.413 3.05011 1.535 3.11011C1.657 3.16011 1.76801 3.23008 1.86001 3.33008L5.39505 6.86011L11.76 0.5C11.948 0.31 12.202 0.209961 12.467 0.209961C12.733 0.209961 12.987 0.31 13.175 0.5C13.362 0.69 13.468 0.939961 13.468 1.20996C13.468 1.46996 13.363 1.72992 13.175 1.91992L6.10306 8.98999C6.01006 9.07999 5.90002 9.14995 5.77902 9.19995C5.65702 9.24995 5.52702 9.28003 5.39602 9.28003Z" fill="#2FAB73"/>
</svg>
